<?xml version="1.0" encoding="UTF-8" standalone="no"?>
<svg
   viewBox="0 0 144 137"
   version="1.1"
   id="svg54"
   sodipodi:docname="logo_white.svg"
   width="144"
   height="137"
   inkscape:version="1.4 (e7c3feb100, 2024-10-09)"
   inkscape:export-filename="logo.png"
   inkscape:export-xdpi="400"
   inkscape:export-ydpi="400"
   xmlns:inkscape="http://www.inkscape.org/namespaces/inkscape"
   xmlns:sodipodi="http://sodipodi.sourceforge.net/DTD/sodipodi-0.dtd"
   xmlns="http://www.w3.org/2000/svg"
   xmlns:svg="http://www.w3.org/2000/svg">
  <defs
     id="defs58">
    <rect
       x="6.1243773"
       y="108.16323"
       width="121.3229"
       height="23.565696"
       id="rect1532" />
    <rect
       x="9.5832748"
       y="109.14206"
       width="125.44712"
       height="28.486874"
       id="rect1526" />
    <rect
       x="8.5935955"
       y="111.35148"
       width="105.83487"
       height="30.057011"
       id="rect442" />
  </defs>
  <sodipodi:namedview
     id="namedview56"
     pagecolor="#ffffff"
     bordercolor="#000000"
     borderopacity="0.25"
     inkscape:showpageshadow="2"
     inkscape:pageopacity="1"
     inkscape:pagecheckerboard="0"
     inkscape:deskcolor="#d1d1d1"
     showgrid="false"
     inkscape:zoom="9.3819615"
     inkscape:cx="142.34763"
     inkscape:cy="59.049486"
     inkscape:window-width="3840"
     inkscape:window-height="2098"
     inkscape:window-x="0"
     inkscape:window-y="0"
     inkscape:window-maximized="1"
     inkscape:current-layer="svg54"
     inkscape:export-bgcolor="#ff862c00" />
  <path
     d="M 25.4,82.8 35.924,70.66 h 7.09 v 32.742 H 34.855 V 82.967 L 26.009,93.233 H 24.784 L 15.94,82.967 v 20.438 H 7.784 V 70.663 h 7.082 z"
     fill="#ffffff"
     id="path28"
     style="fill:#ffffff;fill-opacity:1" />
  <path
     d="m 61.09,70.663 v 32.742 H 52.934 V 70.663 Z"
     fill="#ffffff"
     id="path30"
     style="fill:#ffffff;fill-opacity:1" />
  <path
     d="m 70.99,70.663 h 14.438 q 8.367,0 13.23,4.582 a 15.542,15.542 0 0 1 4.863,11.847 q 0,7.617 -4.933,11.965 -4.933,4.348 -14.074,4.348 H 70.99 Z m 8.156,6 v 20.742 h 5.321 q 5.18,0 7.922,-2.848 a 10.373,10.373 0 0 0 2.742,-7.512 10.28,10.28 0 0 0 -2.777,-7.605 q -2.778,-2.778 -7.981,-2.777 z"
     fill="#ffffff"
     id="path32"
     style="fill:#ffffff;fill-opacity:1" />
  <path
     d="m 136.883,97.405 v 6 H 111.922 V 70.663 h 8.156 v 26.742 z"
     fill="#ffffff"
     id="path34"
     style="fill:#ffffff;fill-opacity:1" />
  <path
     d="m 57.608,52.438 a 7.832,7.832 0 1 1 -7.832,-7.832 7.831,7.831 0 0 1 7.832,7.832 z"
     fill="#ffffff"
     id="path36"
     style="fill:#ffffff;fill-opacity:1" />
  <line
     x1="49.776001"
     y1="52.438"
     x2="91.264999"
     y2="34.551998"
     fill="none"
     stroke="#ffffff"
     stroke-miterlimit="10"
     stroke-width="2"
     id="line38"
     style="fill:#ffffff;fill-opacity:1;stroke:#ffffff;stroke-opacity:1" />
  <path
     d="M 101.319,34.552 A 10.054,10.054 0 1 1 91.265,24.5 10.054,10.054 0 0 1 101.319,34.552 Z"
     fill="#ffffff"
     id="path40"
     style="fill:#ffffff;fill-opacity:1" />
  <path
     d="m 30.379,38.324 a 5.717,5.717 0 1 1 -5.716,-5.718 5.717,5.717 0 0 1 5.716,5.718 z"
     fill="#ffffff"
     id="path42"
     style="fill:#ffffff;fill-opacity:1" />
  <line
     x1="21.915001"
     y1="36.604"
     x2="50.264999"
     y2="52.551998"
     fill="none"
     stroke="#ffffff"
     stroke-miterlimit="10"
     stroke-width="2"
     id="line44"
     style="fill:#ffffff;fill-opacity:1;stroke:#ffffff;stroke-opacity:1" />
  <path
     d="m 125.38,47.324 a 5.718,5.718 0 1 1 -5.717,-5.718 5.718,5.718 0 0 1 5.717,5.718 z"
     fill="#ffffff"
     id="path46"
     style="fill:#ffffff;fill-opacity:1" />
  <line
     x1="90.776001"
     y1="34.438"
     x2="119.662"
     y2="47.324001"
     fill="none"
     stroke="#ffffff"
     stroke-miterlimit="10"
     stroke-width="2"
     id="line48"
     style="fill:#ffffff;fill-opacity:1;stroke:#ffffff;stroke-opacity:1" />
  <line
     x1="90.776001"
     y1="33.438"
     x2="110.381"
     y2="10.042"
     fill="none"
     stroke="#ffffff"
     stroke-miterlimit="10"
     stroke-width="2"
     id="line50"
     style="fill:#ffffff;fill-opacity:1;stroke:#ffffff;stroke-opacity:1" />
  <path
     d="m 113.816,10.042 a 3.436,3.436 0 1 1 -3.434,-3.436 3.435,3.435 0 0 1 3.434,3.436 z"
     fill="#ffffff"
     id="path52"
     style="fill:#ffffff;fill-opacity:1" />
  <text
     xml:space="preserve"
     id="text440"
     style="font-weight:100;font-size:24px;font-family:'IBM Plex Sans';-inkscape-font-specification:'IBM Plex Sans Thin';white-space:pre;shape-inside:url(#rect442);shape-padding:0.769971;display:inline;fill:#ffffff;stroke:#ffffff;fill-opacity:1"
     transform="matrix(1.2887089,0,0,1.2887089,-5.4789855,-40.77846)" />
  <text
     xml:space="preserve"
     id="text1524"
     style="font-style:normal;font-variant:normal;font-weight:normal;font-stretch:normal;font-size:26.6667px;font-family:'Gill Sans MT';-inkscape-font-specification:'Gill Sans MT';white-space:pre;shape-inside:url(#rect1526);display:inline;fill:#ffffff;stroke:#ffffff;fill-opacity:1" />
  <text
     xml:space="preserve"
     style="font-style:normal;font-variant:normal;font-weight:normal;font-stretch:normal;font-size:26.6667px;font-family:'Gill Sans MT';-inkscape-font-specification:'Gill Sans MT';fill:#ffffff;stroke:#aa0000;stroke-width:1.166;stroke-dasharray:none;fill-opacity:1"
     x="18.292953"
     y="12.767953"
     id="text910"><tspan
       sodipodi:role="line"
       id="tspan908"
       x="18.292953"
       y="12.767953" /></text>
  <text
     xml:space="preserve"
     style="font-style:normal;font-variant:normal;font-weight:normal;font-stretch:normal;font-size:26.6667px;font-family:'Gill Sans MT';-inkscape-font-specification:'Gill Sans MT';fill:#ffffff;stroke:#aa0000;stroke-width:1.166;stroke-dasharray:none;fill-opacity:1"
     x="22.215567"
     y="14.144433"
     id="text1016"><tspan
       sodipodi:role="line"
       id="tspan1014" /></text>
  <g
     aria-label="Taipei 2026"
     id="text240"
     style="font-size:25px;fill:#ffffff"
     transform="translate(3.6102233e-7,-0.90442525)">
    <path
       d="m 24.231289,108.96335 v 3.125 h -6.176757 v 13.92822 H 13.806485 V 112.08835 H 7.6297269 v -3.125 z"
       style="font-weight:bold;font-family:'Gill Sans MT';-inkscape-font-specification:'Gill Sans MT Bold';fill:#ffffff"
       id="path3352" />
    <path
       d="m 34.680508,123.17233 v 2.01416 q -1.80664,1.04981 -3.393555,1.04981 -1.708984,0 -2.026367,-1.29395 -1.89209,1.29395 -3.796386,1.29395 -1.342774,0 -2.282715,-0.84229 -0.939942,-0.85449 -0.939942,-1.97754 0,-1.50146 0.964356,-2.41699 0.976562,-0.92773 5.883789,-2.38037 0.12207,-1.92871 -2.001953,-1.92871 -2.307129,0 -4.248047,1.92871 v -2.9541 q 2.270508,-1.40381 4.992676,-1.40381 4.882812,0 4.882812,3.50342 v 5.24902 q 0,0.80567 0.598145,0.80567 0.45166,0 1.367187,-0.64698 z m -5.59082,0.0488 v -2.7832 q -1.818848,0.63476 -2.502442,1.14746 -0.671386,0.50049 -0.671386,1.28174 0,0.50049 0.341797,0.8667 0.341796,0.354 0.830078,0.354 1.02539,0 2.001953,-0.8667 z"
       style="font-weight:bold;font-family:'Gill Sans MT';-inkscape-font-specification:'Gill Sans MT Bold';fill:#ffffff"
       id="path3354" />
    <path
       d="m 36.059903,110.74557 q 0,-0.83007 0.585937,-1.41601 0.585938,-0.58594 1.403809,-0.58594 0.830078,0 1.416015,0.58594 0.585938,0.58594 0.585938,1.41601 0,0.81788 -0.585938,1.41602 -0.585937,0.58594 -1.416015,0.58594 -0.817871,0 -1.403809,-0.58594 -0.585937,-0.59814 -0.585937,-1.41602 z m 3.8208,3.74756 v 11.52344 h -3.625488 v -11.52344 z"
       style="font-weight:bold;font-family:'Gill Sans MT';-inkscape-font-specification:'Gill Sans MT Bold';fill:#ffffff"
       id="path3356" />
    <path
       d="m 46.509121,114.49313 v 1.00098 q 1.452637,-1.23291 3.295899,-1.23291 2.246094,0 3.796387,1.69678 1.550293,1.69677 1.550293,4.16259 0,2.771 -1.5625,4.44336 -1.550293,1.67237 -4.11377,1.67237 -1.586914,0 -2.966309,-0.79346 v 6.32324 h -3.625488 v -17.27295 z m 0,3.27149 v 5.29785 q 1.025391,0.75684 2.09961,0.75684 1.318359,0 2.087402,-0.93995 0.78125,-0.95214 0.78125,-2.56347 0,-1.64795 -0.720215,-2.56348 -0.708008,-0.91553 -2.001953,-0.91553 -1.086426,0 -2.246094,0.92774 z"
       style="font-weight:bold;font-family:'Gill Sans MT';-inkscape-font-specification:'Gill Sans MT Bold';fill:#ffffff"
       id="path3358" />
    <path
       d="m 68.774746,122.43991 v 2.28272 q -2.075195,1.51367 -5.13916,1.51367 -3.039551,0 -4.858398,-1.62354 -1.818848,-1.63574 -1.818848,-4.32129 0,-2.63672 1.708985,-4.33349 1.708984,-1.69678 4.35791,-1.69678 2.661133,0 4.35791,1.79443 1.708984,1.78223 1.599121,4.78516 h -8.276367 q 0.109863,1.5625 1.11084,2.40478 1.000976,0.84229 2.685546,0.84229 2.038575,0 4.272461,-1.64795 z m -7.995605,-3.50342 h 5.004883 q -0.292969,-2.51465 -2.502442,-2.51465 -2.233886,0 -2.502441,2.51465 z"
       style="font-weight:bold;font-family:'Gill Sans MT';-inkscape-font-specification:'Gill Sans MT Bold';fill:#ffffff"
       id="path3360" />
    <path
       d="m 71.203946,110.74557 q 0,-0.83007 0.585937,-1.41601 0.585938,-0.58594 1.403809,-0.58594 0.830078,0 1.416015,0.58594 0.585938,0.58594 0.585938,1.41601 0,0.81788 -0.585938,1.41602 -0.585937,0.58594 -1.416015,0.58594 -0.817871,0 -1.403809,-0.58594 -0.585937,-0.59814 -0.585937,-1.41602 z m 3.8208,3.74756 v 11.52344 h -3.625488 v -11.52344 z"
       style="font-weight:bold;font-family:'Gill Sans MT';-inkscape-font-specification:'Gill Sans MT Bold';fill:#ffffff"
       id="path3362" />
    <path
       d="m 96.167325,122.53757 v 3.479 h -11.26709 v -0.47607 q 1.550293,-1.89209 3.540039,-4.78516 2.001953,-2.90527 2.526855,-4.12598 0.524903,-1.2207 0.524903,-2.36816 0,-1.00098 -0.671387,-1.72119 -0.65918,-0.72022 -1.599121,-0.72022 -1.867676,0 -4.101563,2.12403 v -3.57666 q 2.502442,-1.62354 4.772949,-1.62354 2.514649,0 3.955079,1.29395 1.452636,1.29394 1.452636,3.55224 0,3.08838 -4.626465,8.94776 z"
       style="font-weight:bold;font-family:'Gill Sans MT';-inkscape-font-specification:'Gill Sans MT Bold';fill:#ffffff"
       id="path3364" />
    <path
       d="m 104.26059,108.74362 q 2.70996,0 4.22363,2.33154 1.52588,2.33155 1.52588,6.33545 0,4.1626 -1.47705,6.49414 -1.47705,2.33155 -4.22364,2.33155 -2.7832,0 -4.333492,-2.31934 -1.538086,-2.31933 -1.538086,-6.4209 0,-4.15039 1.562498,-6.44531 1.57471,-2.30713 4.26026,-2.30713 z m 0,14.29444 q 1.02539,0 1.48925,-1.23291 0.46387,-1.24512 0.46387,-4.66309 0,-2.84424 -0.46387,-4.01611 -0.45166,-1.18409 -1.51367,-1.18409 -1.0376,0 -1.52588,1.15967 -0.47607,1.14746 -0.47607,4.56543 0,2.86865 0.47607,4.12598 0.48828,1.24512 1.5503,1.24512 z"
       style="font-weight:bold;font-family:'Gill Sans MT';-inkscape-font-specification:'Gill Sans MT Bold';fill:#ffffff"
       id="path3366" />
    <path
       d="m 123.75522,122.53757 v 3.479 h -11.26709 v -0.47607 q 1.55029,-1.89209 3.54003,-4.78516 2.00196,-2.90527 2.52686,-4.12598 0.5249,-1.2207 0.5249,-2.36816 0,-1.00098 -0.67138,-1.72119 -0.65918,-0.72022 -1.59913,-0.72022 -1.86767,0 -4.10156,2.12403 v -3.57666 q 2.50244,-1.62354 4.77295,-1.62354 2.51465,0 3.95508,1.29395 1.45264,1.29394 1.45264,3.55224 0,3.08838 -4.62647,8.94776 z"
       style="font-weight:bold;font-family:'Gill Sans MT';-inkscape-font-specification:'Gill Sans MT Bold';fill:#ffffff"
       id="path3368" />
    <path
       d="m 135.49838,108.74362 -3.94287,6.44531 q 0.56152,-0.14648 1.13525,-0.14648 1.91651,0 3.27149,1.47705 1.36718,1.47705 1.36718,3.89404 0,2.50245 -1.61132,4.1626 -1.61133,1.66016 -4.04053,1.66016 -2.50244,0 -4.07715,-1.67237 -1.57471,-1.68457 -1.57471,-4.37011 0,-2.91748 2.33155,-6.67725 l 2.94189,-4.77295 z m -3.74756,14.29444 q 0.87891,0 1.40381,-0.67139 0.5249,-0.6836 0.5249,-1.85547 0,-1.14746 -0.53711,-1.84326 -0.53711,-0.6958 -1.41601,-0.6958 -0.87891,0 -1.3916,0.6958 -0.5127,0.6958 -0.5127,1.9043 0,1.17187 0.5127,1.81884 0.51269,0.64698 1.41601,0.64698 z"
       style="font-weight:bold;font-family:'Gill Sans MT';-inkscape-font-specification:'Gill Sans MT Bold';fill:#ffffff"
       id="path3370" />
  </g>
</svg>
